<?xml version="1.0" standalone="no"?>
<!DOCTYPE svg PUBLIC "-//W3C//DTD SVG 20010904//EN"
 "http://www.w3.org/TR/2001/REC-SVG-20010904/DTD/svg10.dtd">
<svg version="1.0" xmlns="http://www.w3.org/2000/svg"
 width="5000.000000pt" height="2804.000000pt" viewBox="0 0 5000.000000 2804.000000"
 preserveAspectRatio="xMidYMid meet">

<g transform="translate(0.000000,2804.000000) scale(0.100000,-0.100000)"
fill="#000000" stroke="none">
<path d="M28085 25770 c-269 -14 -497 -60 -639 -129 -96 -47 -138 -84 -115
-105 8 -7 95 -59 194 -115 155 -89 376 -232 652 -422 79 -55 258 -232 304
-300 36 -54 62 -138 53 -173 -3 -14 -21 -39 -40 -55 -61 -54 -151 -53 -469 10
-108 21 -200 32 -285 35 l-125 4 -125 -132 c-69 -73 -132 -144 -140 -157 -14
-21 -67 -35 -520 -142 -278 -65 -520 -126 -539 -134 -29 -14 -82 -17 -305 -19
-283 -3 -381 -12 -656 -62 -446 -82 -927 -219 -1166 -334 -346 -165 -629 -432
-818 -769 -144 -258 -127 -247 -419 -281 -279 -33 -294 -38 -381 -135 -75 -84
-154 -130 -239 -140 -78 -9 -965 72 -994 91 -13 8 -25 27 -29 42 -3 15 -8 35
-11 45 -2 9 -37 41 -76 71 -127 94 -244 230 -309 361 -57 112 -79 210 -89 385
-5 91 -12 172 -15 182 -7 24 -32 30 -369 97 -484 96 -361 96 -1155 1 -1613
-192 -1573 -187 -1592 -211 -10 -12 -18 -29 -18 -39 0 -19 49 -96 106 -167 37
-45 61 -59 1594 -948 415 -241 766 -446 780 -455 37 -26 408 -240 417 -240 5
-1 55 -30 113 -65 58 -35 166 -98 240 -141 203 -116 1412 -815 1433 -828 22
-14 22 -23 -2 -35 -14 -8 -43 -3 -117 21 l-99 31 -185 -6 c-177 -6 -597 -48
-670 -67 -40 -11 -102 -71 -175 -170 -27 -36 -51 -69 -55 -73 -4 -5 -34 8 -66
29 -82 53 -280 145 -402 188 -408 143 -911 198 -1282 140 -96 -15 -127 -27
-94 -38 11 -3 96 -17 189 -31 366 -56 646 -134 846 -236 211 -107 422 -261
502 -367 65 -86 47 -84 -81 8 -119 86 -341 198 -484 245 -645 209 -1355 68
-1906 -376 -93 -76 -309 -290 -343 -341 -13 -19 -52 -74 -86 -121 -185 -256
-350 -599 -446 -932 -102 -350 -147 -675 -147 -1055 0 -598 122 -1120 353
-1513 56 -95 197 -289 219 -303 13 -8 15 -15 -52 181 -93 271 -162 584 -191
870 -16 161 -14 505 5 665 55 462 205 897 437 1268 204 327 463 570 777 730
257 130 481 180 771 169 324 -12 581 -110 766 -292 67 -66 132 -148 147 -184
2 -5 53 -2 113 5 170 20 171 17 5 -45 -85 -32 -303 -120 -485 -196 -572 -238
-528 -225 -700 -195 -65 11 -150 20 -189 20 -343 -1 -649 -274 -748 -667 -32
-125 -32 -380 0 -498 64 -236 199 -377 412 -431 104 -26 272 -16 379 24 269
101 463 323 582 668 45 130 91 182 193 213 38 12 71 19 74 16 9 -9 -28 -154
-65 -255 -39 -105 -119 -265 -176 -351 -100 -151 -354 -341 -551 -411 l-81
-29 75 5 c141 10 281 62 404 150 84 60 200 184 268 286 70 106 175 319 224
457 42 118 66 158 110 188 20 13 311 92 830 223 439 111 804 202 811 202 21 0
1 -39 -26 -48 -252 -90 -747 -265 -846 -299 -200 -69 -203 -73 -225 -278 -28
-258 -92 -484 -200 -700 -94 -188 -178 -304 -335 -460 -180 -180 -367 -309
-590 -408 -112 -49 -105 -52 39 -16 290 73 585 254 783 480 139 160 275 401
344 612 17 54 33 96 36 94 6 -7 -63 -236 -96 -319 -48 -120 -123 -265 -192
-368 -80 -120 -264 -307 -379 -385 -75 -50 -81 -56 -50 -51 19 3 359 58 755
121 396 63 733 118 748 121 23 5 35 21 76 102 50 101 122 277 161 395 12 37
25 67 28 67 14 0 814 149 817 152 2 2 -26 41 -62 88 -78 101 -175 248 -227
345 l-37 70 38 -45 c141 -166 259 -293 379 -410 297 -289 555 -470 672 -470
35 0 1844 297 3603 591 l365 62 -27 99 c-77 271 -111 523 -112 808 0 301 35
531 120 791 55 169 78 209 53 90 -45 -207 -55 -307 -55 -586 0 -288 6 -348 56
-598 60 -301 201 -645 371 -904 108 -164 300 -386 429 -494 125 -106 259 -209
272 -209 4 0 25 -11 47 -25 70 -44 252 -131 350 -168 421 -157 985 -194 1450
-95 449 95 860 291 1257 600 141 109 413 375 536 525 880 1065 1145 2485 674
3611 -16 40 -31 71 -33 69 -2 -1 8 -43 21 -92 195 -707 130 -1605 -172 -2375
-51 -129 -142 -316 -204 -417 -42 -68 -141 -205 -145 -200 -1 1 27 60 62 132
162 326 277 693 338 1075 44 273 51 376 51 735 -1 357 -13 515 -56 745 -79
417 -285 858 -532 1140 -190 217 -507 428 -679 452 -108 15 -409 4 -554 -21
-380 -65 -900 -252 -1224 -441 -182 -106 -288 -287 -307 -523 l-6 -79 49 31
c66 40 209 87 324 106 138 22 364 20 465 -4 503 -121 860 -444 1030 -932 87
-249 120 -445 119 -709 -1 -383 -94 -734 -300 -1129 -277 -533 -685 -890
-1214 -1065 -171 -56 -300 -78 -460 -78 -741 -1 -1314 599 -1391 1457 -54 599
200 1344 601 1767 l86 91 213 -469 c326 -715 342 -747 410 -813 32 -31 101
-83 154 -116 53 -33 96 -63 96 -67 2 -15 -77 -21 -137 -10 -84 14 -181 61
-240 117 -55 51 -65 69 -222 422 -82 186 -106 230 -117 222 -21 -18 -140 -267
-169 -354 -83 -253 -88 -558 -13 -800 112 -365 437 -595 807 -571 208 13 401
93 584 242 307 252 508 702 508 1139 0 447 -182 756 -502 854 -162 49 -351 48
-510 -2 l-68 -22 49 -145 c61 -182 155 -415 237 -587 l63 -133 -25 -6 c-48
-12 -366 42 -409 70 -28 18 -893 1929 -904 1996 -18 113 13 189 145 354 160
201 312 346 416 397 l45 22 59 -23 c107 -40 312 -38 646 6 65 9 123 14 129 12
15 -5 -203 -90 -314 -122 -123 -36 -319 -72 -486 -91 -80 -8 -147 -17 -149
-19 -12 -13 237 -17 383 -8 184 13 312 36 585 106 96 25 281 72 410 105 364
93 383 96 690 96 285 -1 349 -9 489 -61 35 -13 66 -22 68 -20 7 7 -126 121
-180 154 -28 17 -88 40 -132 51 -89 22 -274 51 -326 51 l-34 0 34 32 c41 38
61 84 61 138 l0 41 -33 -25 c-105 -81 -344 -105 -688 -71 -266 27 -474 66
-919 174 -406 99 -562 115 -684 72 -180 -63 -437 -261 -771 -596 -527 -527
-1056 -1219 -1291 -1685 -279 -556 -429 -1229 -460 -2054 -7 -214 -4 -214 -70
-16 -172 513 -213 1147 -113 1758 21 128 31 153 44 113 3 -11 24 -36 45 -55
76 -69 130 -41 184 95 56 144 180 417 273 603 52 103 92 191 89 193 -16 17
-357 -73 -503 -132 -46 -18 -81 -30 -78 -26 11 19 180 124 275 172 57 28 152
69 213 90 113 41 178 78 218 127 29 33 193 311 188 317 -7 7 -173 -25 -319
-61 -131 -33 -294 -86 -392 -128 -21 -9 -38 -14 -38 -12 0 3 48 37 107 76 177
119 383 214 573 265 114 30 168 57 219 109 41 43 231 311 231 328 0 10 -13 8
-185 -23 -190 -35 -468 -115 -604 -175 -30 -14 -56 -22 -58 -20 -2 2 24 24 59
48 219 156 457 266 727 335 157 40 238 79 292 143 125 148 256 323 281 377 51
107 49 244 -6 353 -13 25 -55 89 -93 141 -39 52 -82 113 -96 135 -24 40 -25
43 -9 58 24 21 170 107 269 158 l82 42 193 -190 c323 -318 478 -438 713 -554
380 -186 889 -344 1278 -395 149 -19 399 -20 488 -1 109 23 191 74 225 139 20
38 35 125 28 163 l-6 32 -51 -39 c-60 -45 -109 -51 -150 -19 -41 32 -211 449
-283 694 -38 129 -50 244 -27 267 16 16 49 2 102 -47 23 -20 41 -33 41 -29 0
28 -267 351 -376 455 -135 129 -319 269 -466 354 -27 15 -48 26 -48 24 0 -1
14 -41 30 -88 47 -135 38 -226 -26 -260 -86 -46 -468 38 -739 163 -96 44 -244
123 -260 138 -5 5 33 -9 85 -32 274 -120 493 -182 640 -183 109 -1 149 15 175
70 20 42 19 136 -1 204 l-16 54 -13 -31 c-16 -38 -60 -63 -110 -63 -53 0 -179
45 -260 92 -140 83 -249 172 -500 412 -272 259 -393 361 -519 437 -30 19 -56
37 -56 40 0 13 60 20 231 26 284 9 533 -20 658 -78 35 -16 65 -28 67 -26 5 5
-125 101 -176 130 -69 39 -175 73 -281 91 -83 14 -407 38 -464 34 -11 0 -83
-4 -160 -8z m-390 -1704 c48 -82 42 -184 -15 -249 -30 -35 -63 -52 -170 -89
-65 -23 -65 -23 -68 -65 -2 -23 -9 -46 -16 -52 -7 -6 -192 -58 -412 -116 -625
-166 -636 -169 -763 -240 -80 -44 -105 -44 -252 -1 -271 80 -373 83 -677 21
-286 -58 -884 -214 -907 -237 -7 -6 -1 -7 15 -4 43 10 436 64 630 87 128 15
248 22 391 23 l206 1 59 -38 c32 -21 96 -55 141 -77 45 -21 91 -48 102 -59 27
-27 27 -67 -1 -111 -11 -19 -93 -168 -181 -330 -327 -605 -515 -880 -725
-1062 -77 -67 -96 -70 -194 -37 -132 44 -289 134 -478 274 -69 51 -172 123
-230 160 -251 162 -423 279 -537 364 -67 50 -125 91 -128 91 -11 0 44 -90 102
-168 37 -50 49 -72 36 -68 -44 13 -171 27 -518 56 -336 29 -372 34 -387 52
-16 18 -16 23 -3 56 25 61 49 86 100 105 60 22 218 47 301 47 174 0 226 35
309 208 128 265 313 478 593 679 245 177 648 322 1197 432 352 71 752 107 919
85 43 -6 46 -8 46 -38 0 -126 108 -220 233 -203 70 10 1125 286 1158 302 68
36 114 146 91 221 -13 43 1 35 33 -20z m1155 -104 c285 -74 634 -250 993 -501
76 -53 148 -103 160 -111 41 -28 -107 132 -218 236 -149 139 -241 212 -362
284 -57 34 -103 63 -103 65 0 6 148 -26 234 -51 189 -54 298 -126 512 -339
152 -151 232 -249 355 -434 103 -155 120 -197 95 -236 -10 -14 -24 -29 -32
-32 -27 -10 -325 38 -480 77 -185 47 -336 106 -564 220 -307 155 -469 271
-716 515 -131 130 -304 324 -304 342 0 3 71 3 158 0 132 -4 175 -9 272 -35z
m-2439 -141 c57 -57 29 -151 -46 -151 -70 0 -113 106 -65 158 30 32 75 29 111
-7z m-6428 -400 c7 -5 51 -15 97 -20 167 -21 575 -103 593 -118 13 -12 17 -32
17 -84 0 -143 39 -319 97 -434 37 -73 126 -197 173 -239 22 -20 37 -36 34 -36
-3 0 -49 11 -102 24 -97 25 -316 65 -469 87 -66 9 -86 16 -107 38 -42 44 -120
181 -187 332 -91 204 -163 277 -306 314 -56 14 -107 13 -729 -15 -367 -16
-677 -29 -688 -29 -12 1 320 34 737 74 417 40 765 76 773 79 15 6 27 30 40 81
l8 30 4 -37 c2 -20 9 -41 15 -47z m-1303 -737 c0 -2 -9 0 -20 6 -11 6 -20 13
-20 16 0 2 9 0 20 -6 11 -6 20 -13 20 -16z m885 -457 c1686 -874 2898 -1487
2942 -1487 13 0 55 18 91 40 68 39 201 100 222 100 6 0 -15 -23 -47 -51 -65
-57 -146 -146 -217 -237 l-47 -62 -52 29 c-872 482 -3723 2085 -3742 2104 -5
5 60 -26 145 -70 85 -44 403 -209 705 -366z m4514 -1000 c112 -88 264 -178
497 -293 127 -63 249 -130 270 -148 79 -67 122 -196 109 -320 -17 -159 -109
-763 -130 -856 -139 -620 -507 -1121 -1010 -1374 -95 -47 -225 -100 -231 -93
-3 2 22 14 53 26 188 72 410 231 560 401 251 284 427 691 488 1125 25 185 56
552 58 695 1 118 -2 142 -21 190 -32 80 -73 124 -170 181 -139 82 -251 162
-336 241 -88 80 -185 198 -218 261 -24 48 -28 49 81 -36z m7159 -465 c315
-236 516 -609 577 -1070 19 -146 19 -431 0 -597 -115 -983 -714 -1829 -1493
-2109 -94 -34 -281 -81 -408 -102 -141 -25 -463 -25 -599 0 -122 21 -306 81
-406 131 -86 43 -205 124 -240 161 -15 17 -4 12 31 -15 68 -51 229 -132 330
-165 214 -71 504 -94 760 -61 675 85 1193 436 1558 1055 439 744 534 1662 236
2289 -97 205 -266 413 -429 526 -38 27 -74 53 -80 58 -23 23 96 -51 163 -101z
m-836 -844 c253 -314 228 -955 -54 -1365 -68 -100 -213 -244 -306 -306 -166
-111 -315 -159 -492 -160 -134 -1 -232 22 -340 79 -68 36 -185 123 -176 131 3
3 24 -11 46 -30 23 -20 74 -51 113 -71 299 -146 663 -74 942 186 242 225 379
551 392 933 10 292 -55 511 -200 672 -46 51 -47 54 -12 24 22 -19 61 -61 87
-93z m-1391 -1585 c13 -16 12 -17 -3 -4 -17 13 -22 21 -14 21 2 0 10 -8 17
-17z m-9738 -387 c119 -43 184 -169 157 -303 -38 -183 -209 -353 -356 -353
-94 0 -158 35 -202 110 -24 40 -27 55 -27 140 0 86 3 101 31 160 60 125 141
205 247 241 62 22 99 23 150 5z m7869 -610 c57 -13 123 -28 147 -32 37 -8
-233 -54 -1779 -305 l-1824 -296 -56 19 c-122 41 -282 149 -450 304 -130 119
-135 131 -23 57 116 -76 290 -166 387 -200 148 -52 68 -61 1856 221 888 140
1620 255 1627 255 6 1 58 -10 115 -23z m1478 -111 c13 -14 21 -25 18 -25 -2 0
-15 11 -28 25 -13 14 -21 25 -18 25 2 0 15 -11 28 -25z"/>
<path d="M937 15172 c-141 -405 -257 -740 -257 -744 0 -5 404 -8 898 -8 l899
0 6 -122 c4 -66 7 -700 7 -1407 0 -707 3 -1897 7 -2643 l6 -1358 2786 0 2786
1 590 840 c325 462 762 1085 973 1384 210 300 382 547 382 550 0 3 -917 5
-2037 5 -1121 0 -2043 4 -2049 8 -8 5 -13 386 -19 1363 -6 1158 -5 1357 7
1367 16 13 471 18 2306 27 l1032 6 0 734 0 735 -4032 0 -4033 0 -258 -738z"/>
<path d="M33225 8669 l-390 -219 -3077 0 -3078 0 0 -3340 0 -3340 1725 0 1725
0 0 1075 0 1075 787 1113 c433 611 1147 1621 1587 2242 440 622 809 1146 820
1165 17 29 278 399 308 438 26 31 -42 -3 -407 -209z"/>
<path d="M6830 7129 c-608 -863 -1140 -1622 -1183 -1687 -317 -476 -585 -1030
-772 -1597 -202 -613 -305 -1201 -331 -1893 l-7 -182 4937 0 4936 0 0 480 c0
509 -6 605 -46 789 -62 277 -170 510 -341 733 -324 422 -791 687 -1318 748
-59 6 -758 10 -1999 10 -1691 0 -1907 2 -1902 15 3 8 659 941 1459 2072 799
1132 1457 2064 1461 2071 6 9 -375 12 -1891 11 l-1898 0 -1105 -1570z"/>
<path d="M37580 8158 c0 -759 65 -1404 205 -2043 61 -275 112 -459 205 -735
512 -1529 1517 -2636 2926 -3226 198 -82 578 -209 789 -263 611 -155 1132
-218 1868 -228 l417 -6 0 1405 0 1404 -202 12 c-289 17 -500 51 -728 118 -594
172 -1074 545 -1404 1093 -251 415 -418 942 -495 1561 -37 297 -45 456 -46
863 l0 397 -1767 0 -1768 0 0 -352z"/>
<path d="M43583 8433 c-251 -327 -390 -666 -438 -1063 -10 -76 -14 -227 -15
-442 l0 -328 1130 0 1130 0 0 -2430 0 -2430 27 0 c44 0 438 48 668 81 846 122
1724 328 2440 572 l70 24 3 3046 2 3047 -2479 0 -2479 0 -59 -77z"/>
<path d="M16235 8425 c-476 -124 -864 -438 -1076 -871 -30 -62 -169 -442 -359
-984 -171 -486 -310 -887 -310 -892 0 -4 466 -8 1035 -8 l1035 0 0 -1950 0
-1950 2618 0 c2616 0 2786 2 3152 36 1293 119 2336 551 3051 1264 253 253 434
500 581 792 257 514 370 1062 355 1718 -11 509 -86 894 -236 1228 -189 417
-479 788 -836 1069 -250 197 -595 363 -1005 484 -80 24 -147 46 -150 50 -3 3
-48 14 -101 23 -88 15 -426 16 -3880 15 l-3784 -1 -90 -23z m6555 -2779 c0
-59 -32 -259 -55 -346 -28 -102 -90 -242 -149 -333 -20 -32 -73 -96 -118 -143
-226 -235 -560 -367 -1022 -404 -71 -5 -428 -10 -793 -10 l-663 0 0 630 1 630
1399 0 1400 0 0 -24z"/>
<path d="M33878 8133 c-8 -10 -473 -658 -1032 -1441 l-1018 -1422 365 -703
c200 -386 393 -760 430 -832 36 -71 280 -542 541 -1045 l475 -915 1936 -3
1936 -2 -29 52 c-361 636 -3559 6275 -3578 6311 -10 17 -11 17 -26 0z"/>
</g>
</svg>
